<svg width="375" height="812" viewBox="0 0 375 812" fill="none" xmlns="http://www.w3.org/2000/svg">
<g clip-path="url(#clip0)">
<rect width="375" height="812" rx="8" fill="white"/>
<path d="M578.888 44.5443C578.888 130.148 337.888 280.515 383.888 199.544C429.888 118.574 376.888 180.515 188.888 44.5443C0.888145 -91.426 442.888 11.5443 383.888 -110.456C324.888 -232.456 578.888 -41.0598 578.888 44.5443Z" fill="#A2E58D"/>
<path d="M247.553 793.027C350.053 825.027 171.441 948.027 77.5525 948.027C-16.3359 948.027 -69.9474 1014.03 -92.4474 793.027C-114.947 572.027 17.0524 521.027 77.5525 638.027C138.053 755.027 145.053 761.027 247.553 793.027Z" fill="#A2E58D"/>
</g>
<defs>
<clipPath id="clip0">
<rect width="375" height="812" rx="8" fill="white"/>
</clipPath>
</defs>
</svg>
