<svg width="375" height="180" viewBox="0 0 375 180" fill="none" xmlns="http://www.w3.org/2000/svg">
<g opacity="0.5">
<path d="M-2.63682 223C-5.30527 222.978 -7.96514 222.696 -10.5781 222.155C-13.7684 221.746 -16.7828 220.465 -19.2871 218.452C-21.7915 216.439 -23.688 213.774 -24.7665 210.753C-29.8754 196.236 -18.0694 172.639 -8.48688 161.263C1.63896 147.811 6.7579 131.267 5.99273 114.465C5.70155 109.925 5.25154 105.702 4.82801 102.007C3.61034 91.2903 2.7368 83.5303 7.4751 78.3834C11.5252 73.8171 19.387 71.8375 33.7342 71.7847C58.8816 71.6527 68.8348 61.2268 76.8025 52.9388C79.8543 49.4137 83.4243 46.3702 87.3909 43.9119V43.9119C99.9116 37.102 113.2 35.9934 118.944 41.5363C121.591 44.1758 124 49.1908 119.447 58.6137C115.971 65.5371 111.292 71.7924 105.629 77.09C99.8322 83.0024 95.9939 86.9089 98.0057 94.6953C98.4557 96.5165 99.0116 98.3642 99.541 100.212C103.432 113.409 107.826 128.401 85.1143 138.59C80.2966 140.728 75.9289 142.47 72.0377 143.869C56.1551 150.071 46.6521 153.819 35.852 176.519C33.7607 180.927 31.9078 185.097 30.1342 189.136C21.3459 208.509 14.9134 223 -2.63682 223ZM88.635 46.6569C84.9854 48.9536 81.7093 51.793 78.9202 55.0768C70.5024 63.8398 60.0728 74.7673 33.5754 74.8993C20.3399 74.8993 13.0075 76.6677 9.75156 80.4422C6.49564 84.2166 6.86628 91.7391 7.97805 101.558C8.40159 105.306 8.87802 109.476 9.1692 114.148C10.0874 131.765 4.70286 149.135 -6.0251 163.163C-15.5282 174.407 -26.2489 196.816 -21.9077 209.618C-20.9991 212.131 -19.41 214.345 -17.3168 216.013C-15.2235 217.681 -12.7078 218.738 -10.0487 219.067C11.3399 223.37 17.2429 210.04 27.0107 187.948C28.8107 183.909 30.6636 179.713 32.7548 175.278C44.0844 151.523 54.6463 147.3 70.6347 140.965C74.473 139.461 78.8408 137.771 83.5791 135.686C103.776 126.633 100.15 114.201 96.2851 101.03C95.7292 99.156 95.1733 97.2556 94.6968 95.4079C92.2615 85.9322 97.0792 81.0492 103.141 74.8728C108.566 69.8246 113.048 63.8544 116.377 57.2412C118.415 52.9388 120.109 47.132 116.535 43.7534C111.797 39.2927 99.8057 40.5069 88.6085 46.6041L88.635 46.6569Z" fill="white"/>
<path d="M-9.8755 241L-13 240.842C-12.8411 237.911 -8.92223 168.976 18.7748 148.805C49.3051 126.654 58.8905 102.893 63.4713 87.0519C68.7671 68.2539 96.2789 63.2904 97.444 63L98 66.0889C97.7352 66.0889 71.3356 70.9732 66.49 87.9231C61.7767 104.319 51.9266 128.766 20.6813 151.472C-5.87714 170.64 -9.84902 240.182 -9.8755 241Z" fill="white"/>
</g>
<g opacity="0.5">
<path d="M381.637 277C384.305 276.978 386.965 276.696 389.578 276.155C392.768 275.746 395.783 274.465 398.287 272.452C400.792 270.439 402.688 267.774 403.767 264.753C408.875 250.236 397.069 226.639 387.487 215.263C377.361 201.811 372.242 185.267 373.007 168.465C373.298 163.925 373.748 159.702 374.172 156.007C375.39 145.29 376.263 137.53 371.525 132.383C367.475 127.817 359.613 125.837 345.266 125.785C320.118 125.653 310.165 115.227 302.197 106.939C299.146 103.414 295.576 100.37 291.609 97.9119V97.9119C279.088 91.102 265.8 89.9934 260.056 95.5363C257.409 98.1758 255 103.191 259.553 112.614C263.029 119.537 267.708 125.792 273.371 131.09C279.168 137.002 283.006 140.909 280.994 148.695C280.544 150.517 279.988 152.364 279.459 154.212C275.568 167.409 271.174 182.401 293.886 192.59C298.703 194.728 303.071 196.47 306.962 197.869C322.845 204.071 332.348 207.819 343.148 230.519C345.239 234.927 347.092 239.097 348.866 243.136C357.654 262.509 364.087 277 381.637 277ZM290.365 100.657C294.015 102.954 297.291 105.793 300.08 109.077C308.498 117.84 318.927 128.767 345.425 128.899C358.66 128.899 365.993 130.668 369.248 134.442C372.504 138.217 372.134 145.739 371.022 155.558C370.598 159.306 370.122 163.476 369.831 168.148C368.913 185.765 374.297 203.135 385.025 217.163C394.528 228.407 405.249 250.816 400.908 263.618C399.999 266.131 398.41 268.345 396.317 270.013C394.223 271.681 391.708 272.738 389.049 273.067C367.66 277.37 361.757 264.04 351.989 241.948C350.189 237.909 348.336 233.713 346.245 229.278C334.916 205.523 324.354 201.3 308.365 194.965C304.527 193.461 300.159 191.771 295.421 189.686C275.224 180.633 278.85 168.201 282.715 155.03C283.271 153.156 283.827 151.256 284.303 149.408C286.739 139.932 281.921 135.049 275.859 128.873C270.434 123.825 265.952 117.854 262.623 111.241C260.585 106.939 258.891 101.132 262.465 97.7534C267.203 93.2927 279.194 94.5069 290.391 100.604L290.365 100.657Z" fill="white"/>
<path d="M388.875 295L392 294.842C391.841 291.911 387.922 222.976 360.225 202.805C329.695 180.654 320.11 156.893 315.529 141.052C310.233 122.254 282.721 117.29 281.556 117L281 120.089C281.265 120.089 307.664 124.973 312.51 141.923C317.223 158.319 327.073 182.766 358.319 205.472C384.877 224.64 388.849 294.182 388.875 295Z" fill="white"/>
</g>
<g opacity="0.5">
<path d="M215.935 165.607C214.813 165.979 213.601 165.979 212.479 165.607C211.897 165.428 211.362 165.123 210.911 164.715C210.459 164.307 210.103 163.805 209.867 163.244C208.826 161.277 207.531 159.454 206.014 157.825C203.769 157.169 201.788 155.823 200.351 153.978C198.914 152.134 198.094 149.884 198.008 147.547C197.921 145.211 198.573 142.907 199.87 140.962C201.167 139.016 203.043 137.528 205.234 136.708C207.424 135.888 209.817 135.777 212.074 136.392C214.33 137.007 216.336 138.317 217.807 140.135C219.277 141.952 220.138 144.187 220.268 146.521C220.397 148.855 219.788 151.171 218.527 153.14C218.583 155.259 218.917 157.361 219.52 159.393C220.424 161.676 219.013 164.356 216.372 165.448L215.935 165.607ZM206.004 137.428C203.909 138.102 202.088 139.432 200.81 141.223C199.532 143.014 198.865 145.168 198.91 147.367C198.955 149.566 199.708 151.692 201.057 153.43C202.407 155.167 204.281 156.423 206.401 157.011H206.53L206.61 157.11C208.228 158.828 209.604 160.758 210.701 162.847V162.847C210.885 163.29 211.164 163.686 211.52 164.007C211.875 164.328 212.298 164.566 212.757 164.703C213.816 165.04 214.961 164.987 215.985 164.554C218.169 163.681 219.351 161.487 218.626 159.671C217.996 157.506 217.662 155.266 217.633 153.011V152.872L217.712 152.753C218.879 150.985 219.468 148.898 219.396 146.78C219.325 144.663 218.597 142.621 217.314 140.935C216.03 139.249 214.255 138.003 212.232 137.369C210.21 136.736 208.04 136.746 206.024 137.398L206.004 137.428Z" fill="white"/>
<path d="M212.578 162.877L206.63 152.187L209.768 153.17L210.562 150.966L212.439 151.959L213.869 149.209L217.147 161.011L216.263 161.259L213.611 151.691L212.827 153.2L211.069 152.267L210.334 154.301L208.537 153.745L213.383 162.43L212.578 162.877Z" fill="white"/>
<path d="M219.571 162.963L212.235 165.906L213.423 168.863L220.759 165.92L219.571 162.963Z" fill="white"/>
<path d="M219.552 159.463L209.857 163.353L211.766 168.106L221.461 164.216L219.552 159.463Z" fill="white"/>
</g>
<g opacity="0.5">
<path d="M327.366 69.7891L322.372 67.5951C322.175 67.5093 322.021 67.349 321.943 67.1494C321.865 66.9499 321.869 66.7274 321.955 66.531C322.041 66.3347 322.201 66.1804 322.401 66.1022C322.6 66.0241 322.823 66.0284 323.02 66.1142L326.548 67.65L329.095 62.0059C329.183 61.8102 329.345 61.6576 329.546 61.5814C329.746 61.5053 329.969 61.512 330.165 61.6C330.361 61.688 330.513 61.8501 330.59 62.0507C330.666 62.2513 330.659 62.4739 330.571 62.6696L327.366 69.7891Z" fill="white"/>
<path d="M333.068 74.5393C331.417 75.6988 329.459 76.343 327.442 76.3905C325.425 76.438 323.439 75.8865 321.735 74.8059C320.032 73.7253 318.687 72.1641 317.871 70.3196C317.055 68.4751 316.805 66.4303 317.152 64.4437C317.499 62.457 318.427 60.6178 319.82 59.1586C321.213 57.6993 323.007 56.6856 324.976 56.2456C326.945 55.8057 329.001 55.9591 330.883 56.6867C332.764 57.4142 334.388 58.6832 335.549 60.3331C337.102 62.5466 337.713 65.2855 337.248 67.9489C336.783 70.6122 335.279 72.9824 333.068 74.5393V74.5393ZM322.147 59.055C320.733 60.0493 319.646 61.4402 319.023 63.052C318.4 64.6638 318.269 66.4241 318.646 68.1103C319.024 69.7965 319.893 71.3329 321.145 72.5252C322.396 73.7176 323.973 74.5124 325.676 74.8092C327.379 75.1059 329.132 74.8913 330.713 74.1924C332.294 73.4935 333.633 72.3418 334.559 70.8828C335.485 69.4238 335.958 67.7231 335.917 65.9956C335.876 64.2681 335.324 62.5915 334.33 61.1778C332.99 59.2893 330.958 58.0067 328.676 57.6091C326.394 57.2115 324.047 57.7312 322.147 59.055V59.055Z" fill="white"/>
</g>
<g opacity="0.5">
<path d="M199.053 25.5734L193.256 24.7312L190.664 19.4787C190.519 19.1856 190.221 19 189.894 19C189.568 19 189.269 19.1854 189.124 19.4787L186.532 24.7312L180.735 25.5734C180.033 25.6754 179.751 26.5419 180.259 27.0378L184.454 31.1265L183.463 36.8999C183.344 37.5995 184.081 38.1361 184.709 37.8049L189.894 35.0793C195.542 38.0483 195.187 37.9038 195.478 37.9038C195.656 37.9038 195.833 37.8485 195.983 37.7397C196.247 37.5475 196.38 37.2221 196.325 36.9001L195.334 31.1267L199.529 27.038C200.037 26.5428 199.756 25.6758 199.053 25.5734Z" fill="white"/>
<path d="M189.457 32.6412L185.263 28.5525C184.754 28.0571 185.035 27.1902 185.738 27.088L191.535 26.2459L192.77 23.7447L190.664 19.4787C190.519 19.1856 190.221 19 189.894 19C189.568 19 189.269 19.1854 189.124 19.4787L186.532 24.7312L180.735 25.5734C180.033 25.6754 179.751 26.5419 180.259 27.0378L184.454 31.1265L183.463 36.8999C183.344 37.5995 184.081 38.1361 184.709 37.8049L188.954 35.5736L189.457 32.6412Z" fill="#E0E0E0"/>
</g>
<path opacity="0.5" d="M40.8439 24.6878C44.6237 24.6878 47.6878 21.6237 47.6878 17.8439C47.6878 14.0641 44.6237 11 40.8439 11C37.0641 11 34 14.0641 34 17.8439C34 21.6237 37.0641 24.6878 40.8439 24.6878Z" fill="white"/>
<path opacity="0.5" d="M256.604 12.5199C255.306 11.5837 248.611 7.16627 245.088 12.8462C242.913 16.353 244.109 19.4688 247.691 21.6215C247.691 21.622 247.694 21.6238 247.694 21.6238C260.166 29.139 282.045 44.8302 301.246 71.4151C301.246 71.4146 285.36 34.3564 256.604 12.5199Z" fill="white"/>
<g opacity="0.5">
<path d="M388.875 295L392 294.842C391.841 291.911 387.922 222.976 360.225 202.805C329.695 180.654 320.11 156.893 315.529 141.052C310.233 122.254 282.721 117.29 281.556 117L281 120.089C281.265 120.089 307.664 124.973 312.51 141.923C317.223 158.319 327.073 182.766 358.319 205.472C384.877 224.64 388.849 294.182 388.875 295Z" fill="white"/>
</g>
<g opacity="0.5">
<path d="M327.366 69.7891L322.372 67.5951C322.175 67.5093 322.021 67.349 321.943 67.1494C321.865 66.9499 321.869 66.7274 321.955 66.531C322.041 66.3347 322.201 66.1804 322.401 66.1022C322.6 66.0241 322.823 66.0284 323.02 66.1142L326.548 67.65L329.095 62.0059C329.183 61.8102 329.345 61.6576 329.546 61.5814C329.746 61.5053 329.969 61.512 330.165 61.6C330.361 61.688 330.513 61.8501 330.59 62.0507C330.666 62.2513 330.659 62.4739 330.571 62.6696L327.366 69.7891Z" fill="white"/>
</g>
<g opacity="0.5">
<path d="M199.053 25.5734L193.256 24.7312L190.664 19.4787C190.519 19.1856 190.221 19 189.894 19C189.568 19 189.269 19.1854 189.124 19.4787L186.532 24.7312L180.735 25.5734C180.033 25.6754 179.751 26.5419 180.259 27.0378L184.454 31.1265L183.463 36.8999C183.344 37.5995 184.081 38.1361 184.709 37.8049L189.894 35.0793C195.542 38.0483 195.187 37.9038 195.478 37.9038C195.656 37.9038 195.833 37.8485 195.983 37.7397C196.247 37.5475 196.38 37.2221 196.325 36.9001L195.334 31.1267L199.529 27.038C200.037 26.5428 199.756 25.6758 199.053 25.5734Z" fill="white"/>
<path d="M189.457 32.6412L185.263 28.5525C184.754 28.0571 185.035 27.1902 185.738 27.088L191.535 26.2459L192.77 23.7447L190.664 19.4787C190.519 19.1856 190.221 19 189.894 19C189.568 19 189.269 19.1854 189.124 19.4787L186.532 24.7312L180.735 25.5734C180.033 25.6754 179.751 26.5419 180.259 27.0378L184.454 31.1265L183.463 36.8999C183.344 37.5995 184.081 38.1361 184.709 37.8049L188.954 35.5736L189.457 32.6412Z" fill="#E0E0E0"/>
</g>
<g opacity="0.5">
<path d="M-2.63682 223C-5.30527 222.978 -7.96514 222.696 -10.5781 222.155C-13.7684 221.746 -16.7828 220.465 -19.2871 218.452C-21.7915 216.439 -23.688 213.774 -24.7665 210.753C-29.8754 196.236 -18.0694 172.639 -8.48688 161.263C1.63896 147.811 6.7579 131.267 5.99273 114.465C5.70155 109.925 5.25154 105.702 4.82801 102.007C3.61034 91.2903 2.7368 83.5303 7.4751 78.3834C11.5252 73.8171 19.387 71.8375 33.7342 71.7847C58.8816 71.6527 68.8348 61.2268 76.8025 52.9388C79.8543 49.4137 83.4243 46.3702 87.3909 43.9119V43.9119C99.9116 37.102 113.2 35.9934 118.944 41.5363C121.591 44.1758 124 49.1908 119.447 58.6137C115.971 65.5371 111.292 71.7924 105.629 77.09C99.8322 83.0024 95.9939 86.9089 98.0057 94.6953C98.4557 96.5165 99.0116 98.3642 99.541 100.212C103.432 113.409 107.826 128.401 85.1143 138.59C80.2966 140.728 75.9289 142.47 72.0377 143.869C56.1551 150.071 46.6521 153.819 35.852 176.519C33.7607 180.927 31.9078 185.097 30.1342 189.136C21.3459 208.509 14.9134 223 -2.63682 223ZM88.635 46.6569C84.9854 48.9536 81.7093 51.793 78.9202 55.0768C70.5024 63.8398 60.0728 74.7673 33.5754 74.8993C20.3399 74.8993 13.0075 76.6677 9.75156 80.4422C6.49564 84.2166 6.86628 91.7391 7.97805 101.558C8.40159 105.306 8.87802 109.476 9.1692 114.148C10.0874 131.765 4.70286 149.135 -6.0251 163.163C-15.5282 174.407 -26.2489 196.816 -21.9077 209.618C-20.9991 212.131 -19.41 214.345 -17.3168 216.013C-15.2235 217.681 -12.7078 218.738 -10.0487 219.067C11.3399 223.37 17.2429 210.04 27.0107 187.948C28.8107 183.909 30.6636 179.713 32.7548 175.278C44.0844 151.523 54.6463 147.3 70.6347 140.965C74.473 139.461 78.8408 137.771 83.5791 135.686C103.776 126.633 100.15 114.201 96.2851 101.03C95.7292 99.156 95.1733 97.2556 94.6968 95.4079C92.2615 85.9322 97.0792 81.0492 103.141 74.8728C108.566 69.8246 113.048 63.8544 116.377 57.2412C118.415 52.9388 120.109 47.132 116.535 43.7534C111.797 39.2927 99.8057 40.5069 88.6085 46.6041L88.635 46.6569Z" fill="white"/>
<path d="M-9.8755 241L-13 240.842C-12.8411 237.911 -8.92223 168.976 18.7748 148.805C49.3051 126.654 58.8905 102.893 63.4713 87.0519C68.7671 68.2539 96.2789 63.2904 97.444 63L98 66.0889C97.7352 66.0889 71.3356 70.9732 66.49 87.9231C61.7767 104.319 51.9266 128.766 20.6813 151.472C-5.87714 170.64 -9.84902 240.182 -9.8755 241Z" fill="white"/>
</g>
<g opacity="0.5">
<path d="M381.637 277C384.305 276.978 386.965 276.696 389.578 276.155C392.768 275.746 395.783 274.465 398.287 272.452C400.792 270.439 402.688 267.774 403.767 264.753C408.875 250.236 397.069 226.639 387.487 215.263C377.361 201.811 372.242 185.267 373.007 168.465C373.298 163.925 373.748 159.702 374.172 156.007C375.39 145.29 376.263 137.53 371.525 132.383C367.475 127.817 359.613 125.837 345.266 125.785C320.118 125.653 310.165 115.227 302.197 106.939C299.146 103.414 295.576 100.37 291.609 97.9119V97.9119C279.088 91.102 265.8 89.9934 260.056 95.5363C257.409 98.1758 255 103.191 259.553 112.614C263.029 119.537 267.708 125.792 273.371 131.09C279.168 137.002 283.006 140.909 280.994 148.695C280.544 150.517 279.988 152.364 279.459 154.212C275.568 167.409 271.174 182.401 293.886 192.59C298.703 194.728 303.071 196.47 306.962 197.869C322.845 204.071 332.348 207.819 343.148 230.519C345.239 234.927 347.092 239.097 348.866 243.136C357.654 262.509 364.087 277 381.637 277ZM290.365 100.657C294.015 102.954 297.291 105.793 300.08 109.077C308.498 117.84 318.927 128.767 345.425 128.899C358.66 128.899 365.993 130.668 369.248 134.442C372.504 138.217 372.134 145.739 371.022 155.558C370.598 159.306 370.122 163.476 369.831 168.148C368.913 185.765 374.297 203.135 385.025 217.163C394.528 228.407 405.249 250.816 400.908 263.618C399.999 266.131 398.41 268.345 396.317 270.013C394.223 271.681 391.708 272.738 389.049 273.067C367.66 277.37 361.757 264.04 351.989 241.948C350.189 237.909 348.336 233.713 346.245 229.278C334.916 205.523 324.354 201.3 308.365 194.965C304.527 193.461 300.159 191.771 295.421 189.686C275.224 180.633 278.85 168.201 282.715 155.03C283.271 153.156 283.827 151.256 284.303 149.408C286.739 139.932 281.921 135.049 275.859 128.873C270.434 123.825 265.952 117.854 262.623 111.241C260.585 106.939 258.891 101.132 262.465 97.7534C267.203 93.2927 279.194 94.5069 290.391 100.604L290.365 100.657Z" fill="white"/>
<path d="M388.875 295L392 294.842C391.841 291.911 387.922 222.976 360.225 202.805C329.695 180.654 320.11 156.893 315.529 141.052C310.233 122.254 282.721 117.29 281.556 117L281 120.089C281.265 120.089 307.664 124.973 312.51 141.923C317.223 158.319 327.073 182.766 358.319 205.472C384.877 224.64 388.849 294.182 388.875 295Z" fill="white"/>
</g>
<g opacity="0.5">
<path d="M215.935 165.607C214.813 165.979 213.601 165.979 212.479 165.607C211.897 165.428 211.362 165.123 210.911 164.715C210.459 164.307 210.103 163.805 209.867 163.244C208.826 161.277 207.531 159.454 206.014 157.825C203.769 157.169 201.788 155.823 200.351 153.978C198.914 152.134 198.094 149.884 198.008 147.547C197.921 145.211 198.573 142.907 199.87 140.962C201.167 139.016 203.043 137.528 205.234 136.708C207.424 135.888 209.817 135.777 212.074 136.392C214.33 137.007 216.336 138.317 217.807 140.135C219.277 141.952 220.138 144.187 220.268 146.521C220.397 148.855 219.788 151.171 218.527 153.14C218.583 155.259 218.917 157.361 219.52 159.393C220.424 161.676 219.013 164.356 216.372 165.448L215.935 165.607ZM206.004 137.428C203.909 138.102 202.088 139.432 200.81 141.223C199.532 143.014 198.865 145.168 198.91 147.367C198.955 149.566 199.708 151.692 201.057 153.43C202.407 155.167 204.281 156.423 206.401 157.011H206.53L206.61 157.11C208.228 158.828 209.604 160.758 210.701 162.847V162.847C210.885 163.29 211.164 163.686 211.52 164.007C211.875 164.328 212.298 164.566 212.757 164.703C213.816 165.04 214.961 164.987 215.985 164.554C218.169 163.681 219.351 161.487 218.626 159.671C217.996 157.506 217.662 155.266 217.633 153.011V152.872L217.712 152.753C218.879 150.985 219.468 148.898 219.396 146.78C219.325 144.663 218.597 142.621 217.314 140.935C216.03 139.249 214.255 138.003 212.232 137.369C210.21 136.736 208.04 136.746 206.024 137.398L206.004 137.428Z" fill="white"/>
<path d="M212.578 162.877L206.63 152.187L209.768 153.17L210.562 150.966L212.439 151.959L213.869 149.209L217.147 161.011L216.263 161.259L213.611 151.691L212.827 153.2L211.069 152.267L210.334 154.301L208.537 153.745L213.383 162.43L212.578 162.877Z" fill="white"/>
<path d="M219.571 162.963L212.235 165.906L213.423 168.863L220.759 165.92L219.571 162.963Z" fill="white"/>
<path d="M219.552 159.463L209.857 163.353L211.766 168.106L221.461 164.216L219.552 159.463Z" fill="white"/>
</g>
<g opacity="0.5">
<path d="M327.366 69.7891L322.372 67.5951C322.175 67.5093 322.021 67.349 321.943 67.1494C321.865 66.9499 321.869 66.7274 321.955 66.531C322.041 66.3347 322.201 66.1804 322.401 66.1022C322.6 66.0241 322.823 66.0284 323.02 66.1142L326.548 67.65L329.095 62.0059C329.183 61.8102 329.345 61.6576 329.546 61.5814C329.746 61.5053 329.969 61.512 330.165 61.6C330.361 61.688 330.513 61.8501 330.59 62.0507C330.666 62.2513 330.659 62.4739 330.571 62.6696L327.366 69.7891Z" fill="white"/>
<path d="M333.068 74.5393C331.417 75.6988 329.459 76.343 327.442 76.3905C325.425 76.438 323.439 75.8865 321.735 74.8059C320.032 73.7253 318.687 72.1641 317.871 70.3196C317.055 68.4751 316.805 66.4303 317.152 64.4437C317.499 62.457 318.427 60.6178 319.82 59.1586C321.213 57.6993 323.007 56.6856 324.976 56.2456C326.945 55.8057 329.001 55.9591 330.883 56.6867C332.764 57.4142 334.388 58.6832 335.549 60.3331C337.102 62.5466 337.713 65.2855 337.248 67.9489C336.783 70.6122 335.279 72.9824 333.068 74.5393V74.5393ZM322.147 59.055C320.733 60.0493 319.646 61.4402 319.023 63.052C318.4 64.6638 318.269 66.4241 318.646 68.1103C319.024 69.7965 319.893 71.3329 321.145 72.5252C322.396 73.7176 323.973 74.5124 325.676 74.8092C327.379 75.1059 329.132 74.8913 330.713 74.1924C332.294 73.4935 333.633 72.3418 334.559 70.8828C335.485 69.4238 335.958 67.7231 335.917 65.9956C335.876 64.2681 335.324 62.5915 334.33 61.1778C332.99 59.2893 330.958 58.0067 328.676 57.6091C326.394 57.2115 324.047 57.7312 322.147 59.055V59.055Z" fill="white"/>
</g>
<g opacity="0.5">
<path d="M199.053 25.5734L193.256 24.7312L190.664 19.4787C190.519 19.1856 190.221 19 189.894 19C189.568 19 189.269 19.1854 189.124 19.4787L186.532 24.7312L180.735 25.5734C180.033 25.6754 179.751 26.5419 180.259 27.0378L184.454 31.1265L183.463 36.8999C183.344 37.5995 184.081 38.1361 184.709 37.8049L189.894 35.0793C195.542 38.0483 195.187 37.9038 195.478 37.9038C195.656 37.9038 195.833 37.8485 195.983 37.7397C196.247 37.5475 196.38 37.2221 196.325 36.9001L195.334 31.1267L199.529 27.038C200.037 26.5428 199.756 25.6758 199.053 25.5734Z" fill="white"/>
<path d="M189.457 32.6412L185.263 28.5525C184.754 28.0571 185.035 27.1902 185.738 27.088L191.535 26.2459L192.77 23.7447L190.664 19.4787C190.519 19.1856 190.221 19 189.894 19C189.568 19 189.269 19.1854 189.124 19.4787L186.532 24.7312L180.735 25.5734C180.033 25.6754 179.751 26.5419 180.259 27.0378L184.454 31.1265L183.463 36.8999C183.344 37.5995 184.081 38.1361 184.709 37.8049L188.954 35.5736L189.457 32.6412Z" fill="#E0E0E0"/>
</g>
<path opacity="0.5" d="M40.8439 24.6878C44.6237 24.6878 47.6878 21.6237 47.6878 17.8439C47.6878 14.0641 44.6237 11 40.8439 11C37.0641 11 34 14.0641 34 17.8439C34 21.6237 37.0641 24.6878 40.8439 24.6878Z" fill="white"/>
<path opacity="0.5" d="M256.604 12.5199C255.306 11.5837 248.611 7.16627 245.088 12.8462C242.913 16.353 244.109 19.4688 247.691 21.6215C247.691 21.622 247.694 21.6238 247.694 21.6238C260.166 29.139 282.045 44.8302 301.246 71.4151C301.246 71.4146 285.36 34.3564 256.604 12.5199Z" fill="white"/>
<g opacity="0.5">
<path d="M388.875 295L392 294.842C391.841 291.911 387.922 222.976 360.225 202.805C329.695 180.654 320.11 156.893 315.529 141.052C310.233 122.254 282.721 117.29 281.556 117L281 120.089C281.265 120.089 307.664 124.973 312.51 141.923C317.223 158.319 327.073 182.766 358.319 205.472C384.877 224.64 388.849 294.182 388.875 295Z" fill="white"/>
</g>
<path d="M136.269 150.12L132.842 149.803C132.569 149.778 132.325 149.975 132.296 150.244L132.102 152.093C132.086 152.239 132.139 152.386 132.246 152.489C132.327 152.568 132.433 152.615 132.545 152.626C132.579 152.629 132.615 152.628 132.65 152.624C133.691 152.502 134.875 152.611 135.869 152.922C136.012 152.966 136.168 152.945 136.294 152.863C136.42 152.782 136.502 152.649 136.518 152.501L136.712 150.653C136.741 150.383 136.543 150.145 136.269 150.12ZM135.591 151.829C134.81 151.648 133.954 151.569 133.151 151.604L133.233 150.823L133.234 150.822L135.673 151.048L135.591 151.829Z" fill="#DADADA"/>
<g opacity="0.5">
<path d="M327.366 69.7891L322.372 67.5951C322.175 67.5093 322.021 67.349 321.943 67.1494C321.865 66.9499 321.869 66.7274 321.955 66.531C322.041 66.3347 322.201 66.1804 322.401 66.1022C322.6 66.0241 322.823 66.0284 323.02 66.1142L326.548 67.65L329.095 62.0059C329.183 61.8102 329.345 61.6576 329.546 61.5814C329.746 61.5053 329.969 61.512 330.165 61.6C330.361 61.688 330.513 61.8501 330.59 62.0507C330.666 62.2513 330.659 62.4739 330.571 62.6696L327.366 69.7891Z" fill="white"/>
</g>
<g opacity="0.5">
<path d="M199.053 25.5734L193.257 24.7312L190.665 19.4787C190.52 19.1856 190.221 19 189.895 19C189.568 19 189.269 19.1854 189.125 19.4787L186.532 24.7312L180.736 25.5734C180.033 25.6754 179.751 26.5419 180.26 27.0378L184.454 31.1265L183.464 36.8999C183.344 37.5995 184.081 38.1361 184.71 37.8049L189.894 35.0793C195.542 38.0483 195.187 37.9038 195.479 37.9038C195.657 37.9038 195.834 37.8485 195.983 37.7397C196.248 37.5475 196.38 37.2221 196.325 36.9001L195.335 31.1267L199.529 27.038C200.038 26.5428 199.757 25.6758 199.053 25.5734Z" fill="white"/>
<path d="M189.457 32.6412L185.263 28.5525C184.754 28.0571 185.035 27.1902 185.738 27.088L191.535 26.2459L192.77 23.7447L190.664 19.4787C190.519 19.1856 190.221 19 189.894 19C189.568 19 189.269 19.1854 189.124 19.4787L186.532 24.7312L180.735 25.5734C180.033 25.6754 179.751 26.5419 180.259 27.0378L184.454 31.1265L183.463 36.8999C183.344 37.5995 184.081 38.1361 184.709 37.8049L188.954 35.5736L189.457 32.6412Z" fill="#E0E0E0"/>
<path d="M150.86 72.4671L152.437 73.0623L151.842 74.6396C151.762 74.8522 151.869 75.0896 152.082 75.1698L154.044 75.9103C154.257 75.9905 154.494 75.8832 154.574 75.6706L155.17 74.0933L156.747 74.6885C156.959 74.7687 157.197 74.6614 157.277 74.4488L158.017 72.4865C158.098 72.2739 157.99 72.0365 157.778 71.9563L156.201 71.3611L156.796 69.7838C156.876 69.5712 156.769 69.3338 156.556 69.2536L154.594 68.5132C154.381 68.4329 154.144 68.5403 154.064 68.7529L153.468 70.3301L151.891 69.7349C151.678 69.6547 151.441 69.762 151.361 69.9746L150.62 71.9369C150.54 72.1495 150.647 72.3869 150.86 72.4671V72.4671ZM151.986 70.6501L153.563 71.2453C153.775 71.3255 154.013 71.2182 154.093 71.0056L154.688 69.4283L155.881 69.8783L155.285 71.4556C155.205 71.6681 155.312 71.9055 155.525 71.9858L157.102 72.581L156.652 73.7733L155.075 73.1781C154.863 73.0979 154.625 73.2052 154.545 73.4178L153.95 74.9951L152.757 74.5452L153.353 72.9679C153.433 72.7553 153.325 72.5179 153.113 72.4376L151.536 71.8425L151.986 70.6501Z" fill="#E6E6E6"/>
<path d="M151.632 76.3623L147.708 74.8813C147.495 74.8011 147.258 74.9084 147.177 75.121L145.697 79.0455C145.616 79.2581 145.724 79.4955 145.936 79.5757L149.861 81.0567C150.073 81.1369 150.311 81.0296 150.391 80.817L151.872 76.8925C151.952 76.6799 151.845 76.4425 151.632 76.3623ZM149.766 80.1415L146.612 78.9511L147.802 75.7965L150.957 76.9869L149.766 80.1415Z" fill="#E6E6E6"/>
<path d="M157.519 78.5837L153.594 77.1028C153.382 77.0226 153.144 77.1299 153.064 77.3425L151.583 81.267C151.503 81.4796 151.61 81.717 151.823 81.7972L155.747 83.2781C155.96 83.3583 156.197 83.251 156.278 83.0384L157.759 79.1139C157.839 78.9013 157.732 78.6639 157.519 78.5837ZM155.653 82.3629L152.498 81.1725L153.689 78.018L156.843 79.2083L155.653 82.3629Z" fill="#E6E6E6"/>
<path d="M159.672 84.7588L161.634 85.4993C161.847 85.5795 162.084 85.4722 162.165 85.2596L163.645 81.3351C163.726 81.1225 163.618 80.8851 163.406 80.8049L161.444 80.0645C161.231 79.9842 160.994 80.0915 160.913 80.3041L159.432 84.2286C159.352 84.4412 159.46 84.6786 159.672 84.7588ZM161.538 80.9796L162.73 81.4296L161.54 84.5841L160.348 84.1342L161.538 80.9796Z" fill="#E6E6E6"/>
<path d="M157.451 90.6456L159.413 91.386C159.626 91.4662 159.863 91.3589 159.943 91.1463L161.424 87.2218C161.505 87.0092 161.397 86.7719 161.185 86.6916L159.222 85.9512C159.01 85.8709 158.772 85.9783 158.692 86.1909L157.211 90.1153C157.131 90.3279 157.238 90.5653 157.451 90.6456ZM159.317 86.8663L160.509 87.3162L159.319 90.4708L158.126 90.0209L159.317 86.8663Z" fill="#E6E6E6"/>
<path d="M166.849 77.6205L161.347 75.5445L163.278 70.4274L163.874 70.6523C164.087 70.7325 164.324 70.6252 164.404 70.4126L165.145 68.4504C165.225 68.2378 165.118 68.0004 164.905 67.9202L149.207 61.9965C148.995 61.9163 148.757 62.0236 148.677 62.2362L147.937 64.1984C147.856 64.411 147.964 64.6484 148.176 64.7287L148.772 64.9535L146.841 70.0706L141.34 67.9946C141.127 67.9144 140.89 68.0217 140.81 68.2343L134.145 85.8946C134.065 86.1072 134.172 86.3446 134.385 86.4248L159.894 96.0507C160.107 96.1309 160.344 96.0236 160.425 95.811L167.089 78.1508C167.169 77.9382 167.062 77.7008 166.849 77.6205V77.6205ZM166.173 78.2452L165.724 79.4375L160.607 77.5068L161.057 76.3144L166.173 78.2452ZM141.434 68.9098L146.551 70.8405L146.101 72.0326L140.984 70.1018L141.434 68.9098ZM149.989 91.4332L147.815 90.613L148.686 88.304C148.767 88.0914 148.659 87.854 148.447 87.7738C148.234 87.6936 147.997 87.8009 147.917 88.0135L147.045 90.3225L144.872 89.5024L146.803 84.3855L148.976 85.2057L148.55 86.3362C148.469 86.5488 148.577 86.7862 148.789 86.8664C149.002 86.9466 149.239 86.8393 149.319 86.6267L149.746 85.4962L151.919 86.3164L149.989 91.4332ZM146.112 83.2454L146.562 82.053L153.641 84.7243L153.191 85.9167L146.112 83.2454ZM152.689 86.6069L153.286 86.8318C153.498 86.912 153.736 86.8047 153.816 86.5921L154.556 84.6299C154.636 84.4173 154.529 84.1799 154.317 84.0997L146.468 81.1378C146.255 81.0576 146.018 81.1649 145.937 81.3775L145.197 83.3398C145.117 83.5524 145.224 83.7898 145.437 83.87L146.033 84.095L144.102 89.212L140.947 88.0215L144.928 77.4712C145.008 77.2586 144.901 77.0212 144.689 76.941C144.476 76.8608 144.239 76.9681 144.158 77.1807L140.177 87.731L135.06 85.8002L140.694 70.8719L145.81 72.8027L144.791 75.5033C144.711 75.7159 144.818 75.9533 145.031 76.0335C145.244 76.1138 145.481 76.0065 145.561 75.7939L149.542 65.244L159.111 68.8549C159.324 68.9351 159.561 68.8278 159.641 68.6152C159.722 68.4026 159.614 68.1652 159.402 68.085L148.852 64.104L149.302 62.9117L164.23 68.5448L163.78 69.7371L161.079 68.718C160.866 68.6377 160.629 68.7451 160.549 68.9577C160.469 69.1703 160.576 69.4077 160.788 69.4879L162.508 70.1369L153.913 92.9143L150.758 91.7239L152.689 86.6069ZM159.8 95.1355L154.683 93.2047L160.316 78.2767L165.433 80.2074L159.8 95.1355Z" fill="#E6E6E6"/>
<path d="M143.783 73.4004L141.821 72.6599C141.608 72.5797 141.371 72.687 141.291 72.8996L139.81 76.8241C139.73 77.0367 139.837 77.2741 140.05 77.3543L142.012 78.0948C142.224 78.175 142.462 78.0677 142.542 77.8551L144.023 73.9306C144.103 73.718 143.996 73.4806 143.783 73.4004ZM141.917 77.1796L140.725 76.7297L141.915 73.5751L143.108 74.025L141.917 77.1796Z" fill="#E6E6E6"/>
<path d="M141.562 79.2871L139.6 78.5466C139.387 78.4664 139.15 78.5737 139.07 78.7863L137.589 82.7108C137.508 82.9234 137.616 83.1608 137.828 83.241L139.791 83.9815C140.003 84.0617 140.241 83.9544 140.321 83.7418L141.802 79.8173C141.882 79.6047 141.775 79.3673 141.562 79.2871ZM139.696 83.0664L138.504 82.6164L139.694 79.4619L140.887 79.9118L139.696 83.0664Z" fill="#E6E6E6"/>
</g>
<path d="M123.895 135.725C124.079 133.976 125.855 132.723 127.676 133.351L128.013 132.427C125.603 131.599 123.156 133.269 122.907 135.634C122.431 140.159 126.988 143.987 129.417 144.941L129.793 144.031C127.879 143.28 123.464 139.823 123.895 135.725Z" fill="#DADADA"/>
<path d="M140.145 160.848L126.805 159.613C126.532 159.588 126.288 159.785 126.26 160.055L126.07 161.854C126.042 162.124 126.241 162.362 126.513 162.387L139.853 163.621C140.126 163.647 140.37 163.449 140.398 163.18L140.588 161.38C140.616 161.111 140.418 160.873 140.145 160.848ZM139.461 162.601L127.11 161.459L127.197 160.633L139.548 161.776L139.461 162.601Z" fill="white"/>
<path d="M140.012 153.905L128.383 152.829C128.11 152.804 127.866 153.001 127.837 153.271L127.115 160.134C127.087 160.403 127.285 160.642 127.558 160.667L139.187 161.743C139.46 161.768 139.704 161.57 139.732 161.301L140.454 154.438C140.483 154.169 140.285 153.931 140.012 153.905ZM138.795 160.723L128.155 159.738L128.774 153.849L139.415 154.834L138.795 160.723Z" fill="white"/>
<path d="M137.831 155.671L130.155 154.961C129.882 154.935 129.638 155.133 129.609 155.402L129.297 158.368C129.269 158.637 129.467 158.876 129.74 158.901L137.416 159.611C137.689 159.636 137.933 159.439 137.961 159.17L138.274 156.204C138.302 155.934 138.104 155.696 137.831 155.671ZM137.024 158.591L130.337 157.972L130.546 155.981L137.234 156.599L137.024 158.591Z" fill="white"/>
<path d="M145.147 132.879C145.006 132.707 144.805 132.6 144.58 132.579L128.348 131.077C128.125 131.057 127.905 131.124 127.731 131.266C127.556 131.409 127.448 131.609 127.425 131.83C127.394 132.162 127.373 132.49 127.349 132.863C127.33 133.164 127.316 133.463 127.305 133.76C127.172 137.391 127.641 140.763 128.661 143.512C128.811 143.916 128.977 144.314 129.154 144.694C129.97 146.443 130.979 147.737 132.154 148.541C132.278 148.625 132.432 148.649 132.574 148.608C132.689 148.622 132.818 148.634 132.963 148.648L136.789 149.002C136.843 149.027 136.901 149.043 136.959 149.048C137.042 149.056 137.128 149.043 137.208 149.009C138.527 148.436 139.787 147.352 140.952 145.786C141.203 145.446 141.448 145.087 141.681 144.717C143.255 142.207 144.418 138.986 145.043 135.402C145.094 135.108 145.142 134.814 145.187 134.512C145.237 134.173 145.286 133.833 145.326 133.489C145.352 133.268 145.289 133.052 145.147 132.879ZM144.203 134.382C144.16 134.673 144.114 134.96 144.064 135.245C143.46 138.706 142.344 141.805 140.837 144.208C140.619 144.556 140.388 144.894 140.152 145.212C139.16 146.546 138.069 147.518 136.985 148.035L133.066 147.673C133.067 147.673 132.734 147.642 132.576 147.627C131.62 146.921 130.753 145.768 130.059 144.278C129.892 143.922 129.737 143.549 129.595 143.168C128.619 140.536 128.17 137.292 128.299 133.786C128.31 133.498 128.323 133.207 128.345 132.87C128.362 132.603 128.379 132.335 128.402 132.066L144.321 133.539C144.286 133.822 144.244 134.102 144.203 134.382Z" fill="#FFFCFC"/>
<path d="M142.178 134.487C142.154 134.639 142.13 134.782 142.105 134.924C141.582 137.923 140.586 140.704 139.3 142.753C139.12 143.039 138.928 143.321 138.729 143.59C138.04 144.516 137.304 145.216 136.6 145.616L137.09 146.463C137.914 145.995 138.757 145.2 139.529 144.163C139.744 143.873 139.951 143.57 140.144 143.261C141.495 141.107 142.54 138.201 143.085 135.08C143.111 134.932 143.135 134.785 143.16 134.629L142.178 134.487Z" fill="white"/>
<path d="M136.493 147.99L133.044 147.671C132.212 147.594 131.962 149.176 131.96 149.192C131.959 149.207 131.9 150.7 132.739 150.778L136.189 151.097C137.007 151.172 137.26 149.698 137.261 149.682C137.263 149.666 137.348 148.069 136.493 147.99ZM136.089 150.104L133.022 149.82C132.975 149.654 132.94 149.383 132.948 149.284C132.962 149.166 133.068 148.847 133.159 148.665L136.196 148.946C136.247 149.141 136.284 149.473 136.273 149.591C136.261 149.69 136.17 149.95 136.089 150.104Z" fill="white"/>
<path d="M136.178 151.989C135.05 151.637 133.723 151.513 132.542 151.653C130.868 151.85 129.811 152.52 129.713 153.444C129.685 153.713 129.884 153.952 130.156 153.977L138.033 154.706C138.306 154.731 138.55 154.534 138.579 154.264C138.676 153.34 137.779 152.49 136.178 151.989ZM131.102 153.081C131.431 152.882 131.956 152.707 132.65 152.624C133.692 152.502 134.875 152.611 135.869 152.922C136.534 153.13 137.011 153.399 137.293 153.653L131.102 153.081Z" fill="white"/>
<g clip-path="url(#clip0)">
<path d="M214.397 84.6262C213.137 85.1205 212.514 86.5473 213.009 87.8075C213.503 89.0678 214.93 89.6907 216.19 89.1964C217.45 88.7021 218.073 87.2753 217.579 86.0151C217.084 84.7548 215.658 84.132 214.397 84.6262ZM215.742 88.0538C215.112 88.3008 214.398 87.9892 214.151 87.3594C213.904 86.7296 214.216 86.0158 214.845 85.7688C215.475 85.5218 216.189 85.8334 216.436 86.4632C216.683 87.093 216.372 87.8068 215.742 88.0538Z" fill="#DADADA"/>
<path d="M218.352 89.6669L213.782 91.4593C213.466 91.5831 213.311 91.9389 213.435 92.2546L214.331 94.5397C214.455 94.8555 214.81 95.0108 215.126 94.8869L215.697 94.6628L219.058 103.232C219.182 103.548 219.538 103.703 219.854 103.579L223.281 102.235C223.597 102.111 223.752 101.755 223.628 101.439L219.147 90.0141C219.023 89.6983 218.668 89.543 218.352 89.6669ZM222.262 101.316L219.977 102.212L216.616 93.6434C216.492 93.3277 216.136 93.1724 215.82 93.2962L215.249 93.5203L214.801 92.3778L218.229 91.0334L222.262 101.316L222.262 101.316Z" fill="#DADADA"/>
<path d="M212.605 80.0563C205.045 83.0213 201.307 91.5841 204.272 99.1439C207.237 106.704 215.8 110.442 223.359 107.477C230.919 104.512 234.657 95.9489 231.692 88.3892C228.727 80.8295 220.165 77.0913 212.605 80.0563ZM222.911 106.334C215.981 109.052 208.132 105.626 205.414 98.6958C202.696 91.7659 206.123 83.9168 213.053 81.1988C219.983 78.4808 227.832 81.9074 230.55 88.8373C233.268 95.7672 229.841 103.616 222.911 106.334Z" fill="#DADADA"/>
</g>
<path d="M145.55 133.936C145.252 133.908 144.941 133.918 144.627 133.964L144.763 134.931C146.679 134.652 148.161 136.204 147.977 137.954C147.546 142.051 142.495 144.633 140.462 145.019L140.641 145.98C143.223 145.489 148.49 142.57 148.966 138.045C149.184 135.973 147.652 134.13 145.55 133.936Z" fill="#DADADA"/>
<g clip-path="url(#clip1)">
<path d="M327.304 22.5072C327.18 22.5845 327.03 22.6058 326.89 22.5682L318.039 20.1401C315.751 19.5115 314.246 17.1035 314.683 14.7703C314.899 13.6206 315.544 12.6597 316.499 12.0629C317.454 11.4661 318.6 11.3073 319.727 11.6165L320.657 11.8719L320.835 10.9242C321.052 9.77531 321.696 8.81502 322.651 8.21822C323.606 7.62142 324.752 7.46264 325.879 7.7718C328.168 8.40129 329.672 10.8092 329.235 13.1416L327.539 22.1615C327.513 22.3044 327.428 22.4299 327.304 22.5072ZM317.051 12.9463C316.346 13.3868 315.869 14.1029 315.708 14.9615C315.367 16.7749 316.537 18.6467 318.316 19.1343L326.621 21.4131L328.213 12.9488C328.554 11.1362 327.384 9.26441 325.605 8.77593C323.919 8.31362 322.183 9.39846 321.861 11.1157L321.578 12.619C321.525 12.9044 321.208 13.102 320.928 13.0253L319.453 12.6206C318.608 12.3909 317.755 12.5062 317.051 12.9463Z" fill="white"/>
<path d="M320.237 36.7511L317.587 38.4074C317.344 38.5597 317.022 38.4855 316.87 38.2417L311.901 30.2918C311.749 30.048 311.823 29.7264 312.067 29.5741C315.071 27.6964 317.291 27.7166 317.384 27.7185C317.607 27.723 317.802 27.8687 317.87 28.0808L320.457 36.1509C320.531 36.3774 320.44 36.6247 320.237 36.7511ZM317.477 37.248L319.342 36.0826L317.003 28.7862C316.357 28.858 314.901 29.1343 313.065 30.1893L317.477 37.248Z" fill="white"/>
<path d="M329.733 33.2729C327.648 34.5758 322.522 35.3424 319.652 35.6823C319.366 35.7169 319.107 35.5119 319.073 35.2268C319.039 34.9414 319.246 34.683 319.529 34.6486C321.77 34.3827 327.197 33.6295 329.181 32.3895C331.33 31.0463 334.816 25.3581 335.804 23.6978C335.387 23.541 334.662 23.4364 333.763 23.9979C332.948 24.5075 332.118 25.4794 331.316 26.4205C330.463 27.4195 329.58 28.4549 328.629 29.0494C326.806 30.1889 323.838 30.83 323.713 30.8564C323.432 30.9169 323.155 30.7374 323.095 30.4553C323.035 30.1737 323.214 29.8983 323.497 29.8373C323.525 29.8317 326.41 29.2079 328.077 28.1661C328.892 27.6565 329.722 26.6847 330.524 25.7435C331.378 24.7445 332.26 23.7092 333.211 23.1146C335.273 21.826 336.792 23.0473 336.856 23.0992C337.052 23.2608 337.102 23.54 336.976 23.7612C336.792 24.0777 332.463 31.5669 329.733 33.2729Z" fill="white"/>
<path d="M330.39 27.445C330.146 27.5973 329.825 27.5231 329.672 27.2793L329.396 26.8377C329.011 26.2211 328.265 25.9529 327.584 26.1867L317.771 29.4569C317.497 29.548 317.202 29.4006 317.111 29.1271C317.02 28.8536 317.17 28.5646 317.441 28.4677L327.251 25.1988C328.39 24.81 329.637 25.2565 330.28 26.2856L330.556 26.7273C330.708 26.9711 330.634 27.2926 330.39 27.445Z" fill="white"/>
</g>
<g opacity="0.5">
<path d="M-2.63682 223C-5.30527 222.978 -7.96514 222.696 -10.5781 222.155C-13.7684 221.746 -16.7828 220.465 -19.2871 218.452C-21.7915 216.439 -23.688 213.774 -24.7665 210.753C-29.8754 196.236 -18.0694 172.639 -8.48688 161.263C1.63896 147.811 6.7579 131.267 5.99273 114.465C5.70155 109.925 5.25154 105.702 4.82801 102.007C3.61034 91.2903 2.7368 83.5303 7.4751 78.3834C11.5252 73.8171 19.387 71.8375 33.7342 71.7847C58.8816 71.6527 68.8348 61.2268 76.8025 52.9388C79.8543 49.4137 83.4243 46.3702 87.3909 43.9119V43.9119C99.9116 37.102 113.2 35.9934 118.944 41.5363C121.591 44.1758 124 49.1908 119.447 58.6137C115.971 65.5371 111.292 71.7924 105.629 77.09C99.8322 83.0024 95.9939 86.9089 98.0057 94.6953C98.4557 96.5165 99.0116 98.3642 99.541 100.212C103.432 113.409 107.826 128.401 85.1143 138.59C80.2966 140.728 75.9289 142.47 72.0377 143.869C56.1551 150.071 46.6521 153.819 35.852 176.519C33.7607 180.927 31.9078 185.097 30.1342 189.136C21.3459 208.509 14.9134 223 -2.63682 223ZM88.635 46.6569C84.9854 48.9536 81.7093 51.793 78.9202 55.0768C70.5024 63.8398 60.0728 74.7673 33.5754 74.8993C20.3399 74.8993 13.0075 76.6677 9.75156 80.4422C6.49564 84.2166 6.86628 91.7391 7.97805 101.558C8.40159 105.306 8.87802 109.476 9.1692 114.148C10.0874 131.765 4.70286 149.135 -6.0251 163.163C-15.5282 174.407 -26.2489 196.816 -21.9077 209.618C-20.9991 212.131 -19.41 214.345 -17.3168 216.013C-15.2235 217.681 -12.7078 218.738 -10.0487 219.067C11.3399 223.37 17.2429 210.04 27.0107 187.948C28.8107 183.909 30.6636 179.713 32.7548 175.278C44.0844 151.523 54.6463 147.3 70.6347 140.965C74.473 139.461 78.8408 137.771 83.5791 135.686C103.776 126.633 100.15 114.201 96.2851 101.03C95.7292 99.156 95.1733 97.2556 94.6968 95.4079C92.2615 85.9322 97.0792 81.0492 103.141 74.8728C108.566 69.8246 113.048 63.8544 116.377 57.2412C118.415 52.9388 120.109 47.132 116.535 43.7534C111.797 39.2927 99.8057 40.5069 88.6085 46.6041L88.635 46.6569Z" fill="white"/>
<path d="M-9.8755 241L-13 240.842C-12.8411 237.911 -8.92223 168.976 18.7748 148.805C49.3051 126.654 58.8905 102.893 63.4713 87.0519C68.7671 68.2539 96.2789 63.2904 97.444 63L98 66.0889C97.7352 66.0889 71.3356 70.9732 66.49 87.9231C61.7767 104.319 51.9266 128.766 20.6813 151.472C-5.87714 170.64 -9.84902 240.182 -9.8755 241Z" fill="white"/>
</g>
<g opacity="0.5">
<path d="M381.637 277C384.305 276.978 386.965 276.696 389.578 276.155C392.768 275.746 395.783 274.465 398.287 272.452C400.792 270.439 402.688 267.774 403.767 264.753C408.875 250.236 397.069 226.639 387.487 215.263C377.361 201.811 372.242 185.267 373.007 168.465C373.298 163.925 373.748 159.702 374.172 156.007C375.39 145.29 376.263 137.53 371.525 132.383C367.475 127.817 359.613 125.837 345.266 125.785C320.118 125.653 310.165 115.227 302.197 106.939C299.146 103.414 295.576 100.37 291.609 97.9119V97.9119C279.088 91.102 265.8 89.9934 260.056 95.5363C257.409 98.1758 255 103.191 259.553 112.614C263.029 119.537 267.708 125.792 273.371 131.09C279.168 137.002 283.006 140.909 280.994 148.695C280.544 150.517 279.988 152.364 279.459 154.212C275.568 167.409 271.174 182.401 293.886 192.59C298.703 194.728 303.071 196.47 306.962 197.869C322.845 204.071 332.348 207.819 343.148 230.519C345.239 234.927 347.092 239.097 348.866 243.136C357.654 262.509 364.087 277 381.637 277ZM290.365 100.657C294.015 102.954 297.291 105.793 300.08 109.077C308.498 117.84 318.927 128.767 345.425 128.899C358.66 128.899 365.993 130.668 369.248 134.442C372.504 138.217 372.134 145.739 371.022 155.558C370.598 159.306 370.122 163.476 369.831 168.148C368.913 185.765 374.297 203.135 385.025 217.163C394.528 228.407 405.249 250.816 400.908 263.618C399.999 266.131 398.41 268.345 396.317 270.013C394.223 271.681 391.708 272.738 389.049 273.067C367.66 277.37 361.757 264.04 351.989 241.948C350.189 237.909 348.336 233.713 346.245 229.278C334.916 205.523 324.354 201.3 308.365 194.965C304.527 193.461 300.159 191.771 295.421 189.686C275.224 180.633 278.85 168.201 282.715 155.03C283.271 153.156 283.827 151.256 284.303 149.408C286.739 139.932 281.921 135.049 275.859 128.873C270.434 123.825 265.952 117.854 262.623 111.241C260.585 106.939 258.891 101.132 262.465 97.7534C267.203 93.2927 279.194 94.5069 290.391 100.604L290.365 100.657Z" fill="white"/>
<path d="M388.875 295L392 294.842C391.841 291.911 387.922 222.976 360.225 202.805C329.695 180.654 320.11 156.893 315.529 141.052C310.233 122.254 282.721 117.29 281.556 117L281 120.089C281.265 120.089 307.664 124.973 312.51 141.923C317.223 158.319 327.073 182.766 358.319 205.472C384.877 224.64 388.849 294.182 388.875 295Z" fill="white"/>
</g>
<g opacity="0.5">
<path d="M215.935 165.607C214.813 165.979 213.601 165.979 212.479 165.607C211.897 165.428 211.362 165.123 210.911 164.715C210.459 164.307 210.103 163.805 209.867 163.244C208.826 161.277 207.531 159.454 206.014 157.825C203.769 157.169 201.788 155.823 200.351 153.978C198.914 152.134 198.094 149.884 198.008 147.547C197.921 145.211 198.573 142.907 199.87 140.962C201.167 139.016 203.043 137.528 205.234 136.708C207.424 135.888 209.817 135.777 212.074 136.392C214.33 137.007 216.336 138.317 217.807 140.135C219.277 141.952 220.138 144.187 220.268 146.521C220.397 148.855 219.788 151.171 218.527 153.14C218.583 155.259 218.917 157.361 219.52 159.393C220.424 161.676 219.013 164.356 216.372 165.448L215.935 165.607ZM206.004 137.428C203.909 138.102 202.088 139.432 200.81 141.223C199.532 143.014 198.865 145.168 198.91 147.367C198.955 149.566 199.708 151.692 201.057 153.43C202.407 155.167 204.281 156.423 206.401 157.011H206.53L206.61 157.11C208.228 158.828 209.604 160.758 210.701 162.847V162.847C210.885 163.29 211.164 163.686 211.52 164.007C211.875 164.328 212.298 164.566 212.757 164.703C213.816 165.04 214.961 164.987 215.985 164.554C218.169 163.681 219.351 161.487 218.626 159.671C217.996 157.506 217.662 155.266 217.633 153.011V152.872L217.712 152.753C218.879 150.985 219.468 148.898 219.396 146.78C219.325 144.663 218.597 142.621 217.314 140.935C216.03 139.249 214.255 138.003 212.232 137.369C210.21 136.736 208.04 136.746 206.024 137.398L206.004 137.428Z" fill="white"/>
<path d="M212.578 162.877L206.63 152.187L209.768 153.17L210.562 150.966L212.439 151.959L213.869 149.209L217.147 161.011L216.263 161.259L213.611 151.691L212.827 153.2L211.069 152.267L210.334 154.301L208.537 153.745L213.383 162.43L212.578 162.877Z" fill="white"/>
<path d="M219.571 162.963L212.235 165.906L213.423 168.863L220.759 165.92L219.571 162.963Z" fill="white"/>
<path d="M219.552 159.463L209.857 163.353L211.766 168.106L221.461 164.216L219.552 159.463Z" fill="white"/>
</g>
<g opacity="0.5">
<path d="M327.366 69.7891L322.372 67.5951C322.175 67.5093 322.021 67.349 321.943 67.1494C321.865 66.9499 321.869 66.7274 321.955 66.531C322.041 66.3347 322.201 66.1804 322.401 66.1022C322.6 66.0241 322.823 66.0284 323.02 66.1142L326.548 67.65L329.095 62.0059C329.183 61.8102 329.345 61.6576 329.546 61.5814C329.746 61.5053 329.969 61.512 330.165 61.6C330.361 61.688 330.513 61.8501 330.59 62.0507C330.666 62.2513 330.659 62.4739 330.571 62.6696L327.366 69.7891Z" fill="white"/>
<path d="M333.068 74.5393C331.417 75.6988 329.459 76.343 327.442 76.3905C325.425 76.438 323.439 75.8865 321.735 74.8059C320.032 73.7253 318.687 72.1641 317.871 70.3196C317.055 68.4751 316.805 66.4303 317.152 64.4437C317.499 62.457 318.427 60.6178 319.82 59.1586C321.213 57.6993 323.007 56.6856 324.976 56.2456C326.945 55.8057 329.001 55.9591 330.883 56.6867C332.764 57.4142 334.388 58.6832 335.549 60.3331C337.102 62.5466 337.713 65.2855 337.248 67.9489C336.783 70.6122 335.279 72.9824 333.068 74.5393V74.5393ZM322.147 59.055C320.733 60.0493 319.646 61.4402 319.023 63.052C318.4 64.6638 318.269 66.4241 318.646 68.1103C319.024 69.7965 319.893 71.3329 321.145 72.5252C322.396 73.7176 323.973 74.5124 325.676 74.8092C327.379 75.1059 329.132 74.8913 330.713 74.1924C332.294 73.4935 333.633 72.3418 334.559 70.8828C335.485 69.4238 335.958 67.7231 335.917 65.9956C335.876 64.2681 335.324 62.5915 334.33 61.1778C332.99 59.2893 330.958 58.0067 328.676 57.6091C326.394 57.2115 324.047 57.7312 322.147 59.055V59.055Z" fill="white"/>
</g>
<g opacity="0.5">
<path d="M199.053 25.5734L193.256 24.7312L190.664 19.4787C190.519 19.1856 190.221 19 189.894 19C189.568 19 189.269 19.1854 189.124 19.4787L186.532 24.7312L180.735 25.5734C180.033 25.6754 179.751 26.5419 180.259 27.0378L184.454 31.1265L183.463 36.8999C183.344 37.5995 184.081 38.1361 184.709 37.8049L189.894 35.0793C195.542 38.0483 195.187 37.9038 195.478 37.9038C195.656 37.9038 195.833 37.8485 195.983 37.7397C196.247 37.5475 196.38 37.2221 196.325 36.9001L195.334 31.1267L199.529 27.038C200.037 26.5428 199.756 25.6758 199.053 25.5734Z" fill="white"/>
<path d="M189.457 32.6412L185.263 28.5525C184.754 28.0571 185.035 27.1902 185.738 27.088L191.535 26.2459L192.77 23.7447L190.664 19.4787C190.519 19.1856 190.221 19 189.894 19C189.568 19 189.269 19.1854 189.124 19.4787L186.532 24.7312L180.735 25.5734C180.033 25.6754 179.751 26.5419 180.259 27.0378L184.454 31.1265L183.463 36.8999C183.344 37.5995 184.081 38.1361 184.709 37.8049L188.954 35.5736L189.457 32.6412Z" fill="#E0E0E0"/>
</g>
<path opacity="0.5" d="M40.8439 24.6878C44.6237 24.6878 47.6878 21.6237 47.6878 17.8439C47.6878 14.0641 44.6237 11 40.8439 11C37.0641 11 34 14.0641 34 17.8439C34 21.6237 37.0641 24.6878 40.8439 24.6878Z" fill="white"/>
<path opacity="0.5" d="M256.604 12.5199C255.306 11.5837 248.611 7.16627 245.088 12.8462C242.913 16.353 244.109 19.4688 247.691 21.6215C247.691 21.622 247.694 21.6238 247.694 21.6238C260.166 29.139 282.045 44.8302 301.246 71.4151C301.246 71.4146 285.36 34.3564 256.604 12.5199Z" fill="white"/>
<g opacity="0.5">
<path d="M388.875 295L392 294.842C391.841 291.911 387.922 222.976 360.225 202.805C329.695 180.654 320.11 156.893 315.529 141.052C310.233 122.254 282.721 117.29 281.556 117L281 120.089C281.265 120.089 307.664 124.973 312.51 141.923C317.223 158.319 327.073 182.766 358.319 205.472C384.877 224.64 388.849 294.182 388.875 295Z" fill="white"/>
</g>
<path d="M136.269 150.12L132.842 149.803C132.569 149.778 132.325 149.975 132.296 150.244L132.102 152.093C132.086 152.239 132.139 152.386 132.246 152.489C132.327 152.568 132.433 152.615 132.545 152.626C132.579 152.629 132.615 152.628 132.65 152.624C133.691 152.502 134.875 152.611 135.869 152.922C136.012 152.966 136.168 152.945 136.294 152.863C136.42 152.782 136.502 152.649 136.518 152.501L136.712 150.653C136.741 150.383 136.543 150.145 136.269 150.12ZM135.591 151.829C134.81 151.648 133.954 151.569 133.151 151.604L133.233 150.823L133.234 150.822L135.673 151.048L135.591 151.829Z" fill="white"/>
<g opacity="0.5">
<path d="M327.366 69.7891L322.372 67.5951C322.175 67.5093 322.021 67.349 321.943 67.1494C321.865 66.9499 321.869 66.7274 321.955 66.531C322.041 66.3347 322.201 66.1804 322.401 66.1022C322.6 66.0241 322.823 66.0284 323.02 66.1142L326.548 67.65L329.095 62.0059C329.183 61.8102 329.345 61.6576 329.546 61.5814C329.746 61.5053 329.969 61.512 330.165 61.6C330.361 61.688 330.513 61.8501 330.59 62.0507C330.666 62.2513 330.659 62.4739 330.571 62.6696L327.366 69.7891Z" fill="white"/>
</g>
<g opacity="0.5">
<path d="M199.053 25.5734L193.257 24.7312L190.665 19.4787C190.52 19.1856 190.221 19 189.895 19C189.568 19 189.269 19.1854 189.125 19.4787L186.532 24.7312L180.736 25.5734C180.033 25.6754 179.751 26.5419 180.26 27.0378L184.454 31.1265L183.464 36.8999C183.344 37.5995 184.081 38.1361 184.71 37.8049L189.894 35.0793C195.542 38.0483 195.187 37.9038 195.479 37.9038C195.657 37.9038 195.834 37.8485 195.983 37.7397C196.248 37.5475 196.38 37.2221 196.325 36.9001L195.335 31.1267L199.529 27.038C200.038 26.5428 199.757 25.6758 199.053 25.5734Z" fill="white"/>
<path d="M150.86 72.4671L152.437 73.0623L151.842 74.6396C151.762 74.8522 151.869 75.0896 152.082 75.1698L154.044 75.9103C154.257 75.9905 154.494 75.8832 154.574 75.6706L155.17 74.0933L156.747 74.6885C156.959 74.7687 157.197 74.6614 157.277 74.4488L158.017 72.4865C158.098 72.2739 157.99 72.0365 157.778 71.9563L156.201 71.3611L156.796 69.7838C156.876 69.5712 156.769 69.3338 156.556 69.2536L154.594 68.5132C154.381 68.4329 154.144 68.5403 154.064 68.7529L153.468 70.3301L151.891 69.7349C151.678 69.6547 151.441 69.762 151.361 69.9746L150.62 71.9369C150.54 72.1495 150.647 72.3869 150.86 72.4671V72.4671ZM151.986 70.6501L153.563 71.2453C153.775 71.3255 154.013 71.2182 154.093 71.0056L154.688 69.4283L155.881 69.8783L155.285 71.4556C155.205 71.6681 155.312 71.9055 155.525 71.9858L157.102 72.581L156.652 73.7733L155.075 73.1781C154.863 73.0979 154.625 73.2052 154.545 73.4178L153.95 74.9951L152.757 74.5452L153.353 72.9679C153.433 72.7553 153.325 72.5179 153.113 72.4376L151.536 71.8425L151.986 70.6501Z" fill="white"/>
<path d="M151.632 76.3623L147.708 74.8813C147.495 74.8011 147.258 74.9084 147.177 75.121L145.697 79.0455C145.616 79.2581 145.724 79.4955 145.936 79.5757L149.861 81.0567C150.073 81.1369 150.311 81.0296 150.391 80.817L151.872 76.8925C151.952 76.6799 151.845 76.4425 151.632 76.3623ZM149.766 80.1415L146.612 78.9511L147.802 75.7965L150.957 76.9869L149.766 80.1415Z" fill="white"/>
<path d="M157.519 78.5837L153.594 77.1028C153.382 77.0226 153.144 77.1299 153.064 77.3425L151.583 81.267C151.503 81.4796 151.61 81.717 151.823 81.7972L155.747 83.2781C155.96 83.3583 156.197 83.251 156.278 83.0384L157.759 79.1139C157.839 78.9013 157.732 78.6639 157.519 78.5837ZM155.653 82.3629L152.498 81.1725L153.689 78.018L156.843 79.2083L155.653 82.3629Z" fill="white"/>
<path d="M159.672 84.7588L161.634 85.4993C161.847 85.5795 162.084 85.4722 162.165 85.2596L163.645 81.3351C163.726 81.1225 163.618 80.8851 163.406 80.8049L161.444 80.0645C161.231 79.9842 160.994 80.0915 160.913 80.3041L159.432 84.2286C159.352 84.4412 159.46 84.6786 159.672 84.7588ZM161.538 80.9796L162.73 81.4296L161.54 84.5841L160.348 84.1342L161.538 80.9796Z" fill="white"/>
<path d="M157.451 90.6456L159.413 91.386C159.626 91.4662 159.863 91.3589 159.943 91.1463L161.424 87.2218C161.505 87.0092 161.397 86.7719 161.185 86.6916L159.222 85.9512C159.01 85.8709 158.772 85.9783 158.692 86.1909L157.211 90.1153C157.131 90.3279 157.238 90.5653 157.451 90.6456ZM159.317 86.8663L160.509 87.3162L159.319 90.4708L158.126 90.0209L159.317 86.8663Z" fill="white"/>
<path d="M166.849 77.6205L161.347 75.5445L163.278 70.4274L163.874 70.6523C164.087 70.7325 164.324 70.6252 164.404 70.4126L165.145 68.4504C165.225 68.2378 165.118 68.0004 164.905 67.9202L149.207 61.9965C148.995 61.9163 148.757 62.0236 148.677 62.2362L147.937 64.1984C147.856 64.411 147.964 64.6484 148.176 64.7287L148.772 64.9535L146.841 70.0706L141.34 67.9946C141.127 67.9144 140.89 68.0217 140.81 68.2343L134.145 85.8946C134.065 86.1072 134.172 86.3446 134.385 86.4248L159.894 96.0507C160.107 96.1309 160.344 96.0236 160.425 95.811L167.089 78.1508C167.169 77.9382 167.062 77.7008 166.849 77.6205V77.6205ZM166.173 78.2452L165.724 79.4375L160.607 77.5068L161.057 76.3144L166.173 78.2452ZM141.434 68.9098L146.551 70.8405L146.101 72.0326L140.984 70.1018L141.434 68.9098ZM149.989 91.4332L147.815 90.613L148.686 88.304C148.767 88.0914 148.659 87.854 148.447 87.7738C148.234 87.6936 147.997 87.8009 147.917 88.0135L147.045 90.3225L144.872 89.5024L146.803 84.3855L148.976 85.2057L148.55 86.3362C148.469 86.5488 148.577 86.7862 148.789 86.8664C149.002 86.9466 149.239 86.8393 149.319 86.6267L149.746 85.4962L151.919 86.3164L149.989 91.4332ZM146.112 83.2454L146.562 82.053L153.641 84.7243L153.191 85.9167L146.112 83.2454ZM152.689 86.6069L153.286 86.8318C153.498 86.912 153.736 86.8047 153.816 86.5921L154.556 84.6299C154.636 84.4173 154.529 84.1799 154.317 84.0997L146.468 81.1378C146.255 81.0576 146.018 81.1649 145.937 81.3775L145.197 83.3398C145.117 83.5524 145.224 83.7898 145.437 83.87L146.033 84.095L144.102 89.212L140.947 88.0215L144.928 77.4712C145.008 77.2586 144.901 77.0212 144.689 76.941C144.476 76.8608 144.239 76.9681 144.158 77.1807L140.177 87.731L135.06 85.8002L140.694 70.8719L145.81 72.8027L144.791 75.5033C144.711 75.7159 144.818 75.9533 145.031 76.0335C145.244 76.1138 145.481 76.0065 145.561 75.7939L149.542 65.244L159.111 68.8549C159.324 68.9351 159.561 68.8278 159.641 68.6152C159.722 68.4026 159.614 68.1652 159.402 68.085L148.852 64.104L149.302 62.9117L164.23 68.5448L163.78 69.7371L161.079 68.718C160.866 68.6377 160.629 68.7451 160.549 68.9577C160.469 69.1703 160.576 69.4077 160.788 69.4879L162.508 70.1369L153.913 92.9143L150.758 91.7239L152.689 86.6069ZM159.8 95.1355L154.683 93.2047L160.316 78.2767L165.433 80.2074L159.8 95.1355Z" fill="white"/>
<path d="M143.783 73.4004L141.821 72.6599C141.608 72.5797 141.371 72.687 141.291 72.8996L139.81 76.8241C139.73 77.0367 139.837 77.2741 140.05 77.3543L142.012 78.0948C142.224 78.175 142.462 78.0677 142.542 77.8551L144.023 73.9306C144.103 73.718 143.996 73.4806 143.783 73.4004ZM141.917 77.1796L140.725 76.7297L141.915 73.5751L143.108 74.025L141.917 77.1796Z" fill="white"/>
<path d="M141.562 79.2871L139.6 78.5466C139.387 78.4664 139.15 78.5737 139.07 78.7863L137.589 82.7108C137.508 82.9234 137.616 83.1608 137.828 83.241L139.791 83.9815C140.003 84.0617 140.241 83.9544 140.321 83.7418L141.802 79.8173C141.882 79.6047 141.775 79.3673 141.562 79.2871ZM139.696 83.0664L138.504 82.6164L139.694 79.4619L140.887 79.9118L139.696 83.0664Z" fill="white"/>
</g>
<path d="M123.895 135.725C124.079 133.976 125.855 132.723 127.676 133.351L128.013 132.427C125.603 131.599 123.156 133.269 122.907 135.634C122.431 140.159 126.988 143.987 129.417 144.941L129.793 144.031C127.879 143.28 123.464 139.823 123.895 135.725Z" fill="white"/>
<g clip-path="url(#clip2)">
<path d="M214.397 84.6262C213.137 85.1205 212.514 86.5473 213.009 87.8075C213.503 89.0678 214.93 89.6907 216.19 89.1964C217.45 88.7021 218.073 87.2753 217.579 86.0151C217.084 84.7548 215.658 84.132 214.397 84.6262ZM215.742 88.0538C215.112 88.3008 214.398 87.9892 214.151 87.3594C213.904 86.7296 214.216 86.0158 214.845 85.7688C215.475 85.5218 216.189 85.8334 216.436 86.4632C216.683 87.093 216.372 87.8068 215.742 88.0538Z" fill="white"/>
<path d="M218.352 89.6669L213.782 91.4593C213.466 91.5831 213.311 91.9389 213.435 92.2546L214.331 94.5397C214.455 94.8555 214.81 95.0108 215.126 94.8869L215.697 94.6628L219.058 103.232C219.182 103.548 219.538 103.703 219.854 103.579L223.281 102.235C223.597 102.111 223.752 101.755 223.628 101.439L219.147 90.0141C219.023 89.6983 218.668 89.543 218.352 89.6669ZM222.262 101.316L219.977 102.212L216.616 93.6434C216.492 93.3277 216.136 93.1724 215.82 93.2962L215.249 93.5203L214.801 92.3778L218.229 91.0334L222.262 101.316L222.262 101.316Z" fill="white"/>
<path d="M212.605 80.0563C205.045 83.0213 201.307 91.5841 204.272 99.1439C207.237 106.704 215.8 110.442 223.359 107.477C230.919 104.512 234.657 95.9489 231.692 88.3892C228.727 80.8295 220.165 77.0913 212.605 80.0563ZM222.911 106.334C215.981 109.052 208.132 105.626 205.414 98.6958C202.696 91.7659 206.123 83.9168 213.053 81.1988C219.983 78.4808 227.832 81.9074 230.55 88.8373C233.268 95.7672 229.841 103.616 222.911 106.334Z" fill="white"/>
</g>
<path d="M145.55 133.936C145.252 133.908 144.941 133.918 144.627 133.964L144.763 134.931C146.679 134.652 148.161 136.204 147.977 137.954C147.546 142.051 142.495 144.633 140.462 145.019L140.641 145.98C143.223 145.489 148.49 142.57 148.966 138.045C149.184 135.973 147.652 134.13 145.55 133.936Z" fill="white"/>
<defs>
<clipPath id="clip0">
<rect width="29.4542" height="29.4542" fill="white" transform="translate(198.895 85.4336) rotate(-21.4156)"/>
</clipPath>
<clipPath id="clip1">
<rect width="25" height="25" fill="white" transform="translate(305 19.25) rotate(-32.0054)"/>
</clipPath>
<clipPath id="clip2">
<rect width="29.4542" height="29.4542" fill="white" transform="translate(198.895 85.4336) rotate(-21.4156)"/>
</clipPath>
</defs>
</svg>
